<?xml version="1.0" standalone="no"?>
<!DOCTYPE svg PUBLIC "-//W3C//DTD SVG 20010904//EN"
 "http://www.w3.org/TR/2001/REC-SVG-20010904/DTD/svg10.dtd">
<svg version="1.0" xmlns="http://www.w3.org/2000/svg"
 width="500.000000pt" height="500.000000pt" viewBox="0 0 500.000000 500.000000"
 preserveAspectRatio="xMidYMid meet" fill="#000000">

<g transform="translate(0.000000,500.000000) scale(0.100000,-0.100000)" stroke="#000000">
<path d="M2566 4341 c-4 -5 -50 -9 -106 -7 -55 1 -100 -2 -100 -6 0 -5 -11 -6
-25 -2 -19 5 -25 2 -25 -10 0 -21 -46 -21 -54 0 -5 13 -15 14 -49 9 -23 -4
-53 -12 -67 -19 -14 -6 -44 -13 -68 -14 -24 -2 -81 -16 -128 -33 -46 -16 -89
-27 -94 -24 -6 3 -10 2 -10 -4 0 -6 -6 -8 -14 -5 -16 6 -166 -63 -166 -77 0
-6 -4 -7 -10 -4 -25 16 -289 -169 -427 -299 -46 -43 -83 -74 -83 -70 0 4 -6 2
-12 -4 -7 -7 -13 -20 -13 -30 0 -9 -5 -16 -12 -15 -16 3 -96 -94 -88 -107 3
-5 -1 -10 -9 -10 -9 0 -16 -3 -17 -7 -3 -33 -11 -50 -31 -66 -13 -10 -17 -16
-9 -12 7 4 16 3 20 -3 5 -9 91 87 91 103 0 2 13 18 30 35 17 17 30 38 30 47 0
9 3 13 7 10 10 -10 52 33 47 47 -6 15 34 53 61 58 11 2 26 16 33 31 7 15 20
27 28 27 7 0 14 7 14 15 0 17 16 20 25 5 8 -13 35 6 35 25 0 13 28 30 43 26
13 -2 52 28 52 42 1 6 7 11 14 9 19 -4 91 40 91 55 0 7 9 13 20 13 11 0 19 6
17 13 -1 6 7 12 18 12 11 0 58 20 105 43 47 24 103 45 126 48 49 4 185 49 194
64 3 6 22 10 41 9 19 -1 75 6 124 15 117 22 295 33 295 17 0 -15 77 -14 83 2
4 9 7 9 14 0 6 -9 26 -11 63 -7 29 2 56 1 59 -4 7 -10 254 -64 293 -63 14 0
29 -6 31 -14 3 -7 21 -16 39 -20 18 -4 38 -11 43 -16 6 -4 22 -10 37 -13 45
-8 218 -95 215 -109 -1 -7 7 -11 21 -9 14 2 22 -2 22 -11 0 -8 30 -34 67 -58
37 -24 76 -52 85 -61 10 -10 23 -18 28 -18 20 0 276 -264 338 -348 114 -153
209 -344 262 -523 12 -38 25 -69 29 -69 4 0 8 -12 8 -27 0 -16 6 -59 13 -98 7
-38 15 -91 17 -117 3 -27 9 -48 13 -48 5 0 6 -22 3 -49 -8 -66 2 -101 27 -101
20 0 24 16 23 75 0 11 4 23 9 26 5 3 2 14 -8 23 -13 13 -14 20 -5 25 15 10 4
111 -12 108 -15 -3 -32 86 -18 91 6 2 11 11 11 19 0 9 -6 13 -14 10 -20 -8
-34 52 -15 64 11 7 10 9 -5 9 -14 0 -16 3 -7 14 27 33 -115 359 -235 536 -82
122 -153 210 -170 210 -9 0 -13 4 -10 9 6 10 -176 189 -228 224 -130 87 -177
117 -223 142 -29 15 -53 32 -53 37 0 4 -6 8 -14 8 -8 0 -44 13 -80 29 -159 72
-364 130 -530 152 -77 10 -101 10 -104 1 -2 -7 -8 -10 -12 -7 -5 3 -7 12 -3
20 3 8 0 15 -6 15 -6 0 -11 -5 -11 -11 0 -8 -4 -8 -14 0 -9 8 -16 8 -20 2z" />
<path d="M2400 3704 c0 -9 16 -30 35 -47 41 -36 42 -45 13 -83 -19 -24 -20
-27 -4 -21 10 4 50 10 89 13 82 8 97 16 97 54 0 57 -79 100 -184 100 -35 0
-46 -4 -46 -16z"/>
<path d="M922 3484 c-12 -8 -22 -20 -22 -26 0 -6 -6 -19 -14 -27 -43 -48 -147
-299 -185 -446 -42 -167 -77 -485 -52 -485 13 0 14 -49 1 -70 -6 -9 -5 -17 3
-22 9 -6 8 -10 -3 -18 -13 -8 -12 -11 5 -24 16 -13 17 -17 6 -25 -16 -11 -6
-112 12 -108 14 3 31 -87 17 -91 -15 -5 -12 -32 4 -32 19 0 31 -51 14 -61 -10
-7 -8 -9 6 -9 14 0 16 -3 7 -14 -17 -20 19 -126 99 -291 95 -198 268 -455 307
-455 8 0 12 -4 9 -9 -3 -5 37 -49 89 -99 94 -91 224 -187 345 -258 36 -20 67
-41 68 -46 2 -4 9 -8 16 -8 7 0 53 -18 102 -39 163 -70 345 -121 508 -141 82
-11 100 -11 107 1 6 10 9 8 9 -10 0 -20 2 -22 16 -10 13 10 17 10 24 0 4 -7
10 -9 13 -4 9 14 170 14 180 0 5 -9 10 -7 18 6 5 9 21 17 34 17 14 0 25 5 25
10 0 16 47 11 54 -6 5 -13 15 -14 49 -9 23 4 53 12 67 19 14 6 43 13 65 14 22
2 79 16 128 33 48 16 92 27 97 24 6 -3 10 -2 10 4 0 6 6 8 14 5 17 -6 166 63
166 77 0 6 5 7 10 4 27 -17 290 169 436 309 37 36 72 64 78 63 6 -1 12 8 14
21 2 12 9 22 17 22 18 0 98 97 90 110 -3 5 1 10 9 10 9 0 17 6 17 13 1 6 2 18
3 25 0 7 12 22 26 33 16 14 19 19 8 15 -32 -10 -19 18 15 34 17 8 32 22 32 30
0 8 6 19 14 24 17 11 99 185 144 306 42 114 83 304 97 455 14 159 14 175 -9
175 -22 0 -30 -38 -26 -117 2 -30 -1 -53 -7 -53 -6 0 -7 -17 -4 -40 3 -22 1
-42 -5 -46 -7 -4 -6 -10 1 -19 7 -8 7 -15 1 -19 -5 -3 -7 -15 -4 -26 3 -12 0
-20 -7 -20 -10 0 -9 -4 2 -17 15 -18 14 -53 -2 -53 -5 0 -12 -20 -16 -45 -3
-26 -13 -52 -21 -60 -8 -8 -12 -19 -9 -24 8 -12 -24 -101 -36 -101 -6 0 -8 -9
-5 -21 3 -12 0 -22 -9 -26 -7 -3 -16 -21 -20 -41 -3 -21 -13 -48 -22 -62 -9
-14 -15 -27 -14 -30 0 -3 -8 -14 -19 -26 -10 -11 -16 -24 -12 -27 3 -4 2 -7
-4 -7 -6 0 -16 -13 -23 -30 -7 -16 -19 -30 -27 -30 -8 0 -11 -5 -8 -11 7 -11
-27 -69 -82 -136 -19 -24 -31 -43 -26 -43 4 0 0 -5 -9 -11 -10 -5 -18 -17 -18
-26 0 -9 -3 -13 -7 -10 -11 11 -32 -14 -26 -30 4 -10 2 -14 -4 -10 -10 6 -50
-29 -54 -48 -3 -21 -26 -44 -52 -54 -15 -6 -32 -22 -37 -36 -5 -14 -16 -25
-25 -25 -8 0 -15 -7 -15 -15 0 -18 -12 -19 -27 -4 -15 15 -33 3 -33 -21 0 -17
-25 -35 -43 -31 -13 2 -52 -28 -52 -42 0 -6 -7 -12 -15 -13 -29 -1 -90 -33
-90 -47 0 -8 -8 -14 -17 -13 -10 0 -18 -6 -18 -14 0 -8 -9 -15 -20 -15 -11 0
-65 -22 -120 -48 -55 -27 -101 -45 -102 -40 -5 14 -203 -52 -203 -68 0 -4 -11
-9 -25 -11 -14 -3 -25 -1 -25 5 0 5 -10 6 -22 3 -107 -32 -388 -59 -388 -37 0
15 -77 14 -83 -1 -4 -10 -8 -10 -15 1 -7 9 -19 11 -37 7 -19 -5 -31 -3 -36 6
-7 10 -9 10 -9 1 0 -14 -36 -18 -42 -5 -1 5 -52 19 -113 31 -60 12 -119 24
-130 27 -11 3 -32 5 -47 5 -14 0 -29 6 -32 14 -2 7 -20 16 -38 20 -18 4 -38
11 -43 16 -6 4 -23 10 -38 13 -48 8 -217 94 -217 109 0 10 -7 13 -20 10 -13
-4 -20 0 -20 10 0 8 -30 34 -67 58 -111 71 -192 140 -310 263 -181 189 -308
400 -388 641 -20 60 -40 112 -44 115 -3 3 -7 16 -8 30 -1 14 -6 54 -13 90 -6
36 -13 83 -16 105 -3 22 -8 47 -11 55 -3 8 -7 48 -8 88 -1 41 -6 77 -12 80
-11 8 -13 172 -1 172 4 0 6 29 4 65 -2 36 0 65 4 65 5 0 6 9 3 20 -3 12 0 20
7 20 10 0 9 4 -2 18 -15 17 -14 52 2 52 4 0 11 20 14 45 4 25 13 50 19 57 7 7
13 24 13 38 1 14 10 43 20 65 10 22 18 45 19 50 0 6 8 21 18 35 9 13 17 34 17
46 0 12 9 33 20 46 10 14 16 28 13 32 -4 4 3 13 15 22 12 8 20 20 17 25 -4 5
-2 9 3 9 5 0 15 14 22 30 7 17 19 30 27 30 8 0 11 4 8 10 -3 5 -1 19 5 30 13
25 -5 27 -38 4z"/>
<path d="M2955 3430 c-38 -5 -132 -13 -207 -19 -175 -14 -281 -34 -607 -112
l-264 -63 -18 22 c-16 20 -19 21 -33 6 -34 -33 -18 -65 44 -93 71 -32 128 -27
275 25 296 104 638 152 904 125 117 -11 141 -5 141 35 0 21 -9 29 -53 49 -67
31 -95 35 -182 25z"/>
<path d="M2815 3028 c48 -73 46 -90 -17 -133 l-53 -35 63 0 c34 0 62 -4 62 -9
0 -12 74 -41 105 -41 70 0 53 138 -25 203 -46 40 -104 67 -140 67 l-31 0 36
-52z"/>
<path d="M2102 2983 c-36 -35 -39 -59 -16 -109 32 -67 114 -101 129 -53 4 11
27 45 51 75 24 29 44 58 44 64 0 5 14 16 30 25 17 9 30 18 30 21 0 9 -67 -4
-138 -27 -70 -23 -89 -21 -94 13 -3 23 -4 23 -36 -9z"/>
<path d="M2618 2443 c2 -43 -2 -129 -8 -192 l-13 -113 -51 -23 c-28 -12 -59
-25 -68 -28 -44 -15 -5 -37 65 -37 44 0 44 0 17 -104 -31 -121 -83 -201 -155
-239 -42 -23 -10 -21 68 3 104 32 139 91 189 314 l13 59 85 34 c47 19 95 39
108 44 32 12 27 28 -13 45 -47 19 -84 18 -124 -7 -18 -11 -35 -18 -38 -15 -2
2 0 57 5 121 11 131 4 175 -33 199 -45 30 -50 23 -47 -61z"/>
<path d="M2875 2436 c-18 -13 -17 -15 18 -29 44 -19 46 -31 10 -70 -23 -24
-24 -28 -8 -22 11 5 49 11 85 14 61 6 65 8 68 32 5 41 -56 89 -111 89 -24 0
-52 -6 -62 -14z"/>
<path d="M2183 2411 c-48 -35 -126 -122 -160 -179 -21 -36 -24 -47 -15 -68 7
-13 17 -24 23 -24 6 0 45 24 87 54 99 69 208 124 222 110 14 -14 -75 -255
-149 -402 -61 -122 -132 -223 -178 -253 -15 -10 -45 -21 -67 -25 l-41 -8 30
-7 c17 -3 58 -7 92 -8 58 -1 66 2 100 33 48 43 119 162 188 313 60 134 125
314 125 348 0 58 -105 74 -199 30 -30 -14 -58 -24 -63 -23 -5 2 7 24 26 50 33
44 47 88 28 88 -5 0 -27 -13 -49 -29z"/>
<path d="M2082 2103 c-10 -4 -10 -8 -2 -18 9 -11 -1 -30 -44 -87 -79 -105 -96
-166 -58 -201 46 -42 103 -7 177 108 18 29 38 56 44 59 6 4 11 12 11 17 0 6
-28 -12 -62 -39 -81 -64 -148 -98 -158 -82 -20 33 30 115 98 160 42 28 45 28
77 13 36 -17 65 -12 65 11 0 40 -98 79 -148 59z"/>
<path d="M2690 1860 c-28 -7 -29 -6 133 -79 37 -16 67 -34 67 -38 0 -5 -17
-15 -37 -22 -21 -8 -60 -27 -88 -43 -27 -17 -41 -27 -30 -23 57 20 167 28 218
16 29 -7 63 -11 77 -10 84 12 -39 149 -164 183 -62 18 -142 25 -176 16z"/>
<path d="M2840 1532 c0 -5 29 -34 65 -63 36 -29 65 -60 65 -68 0 -9 -23 -37
-52 -63 l-53 -48 37 15 c42 17 119 20 134 6 18 -18 80 -23 92 -8 32 38 -69
166 -163 208 -51 23 -125 35 -125 21z"/>
<path d="M2650 1491 c-52 -27 -56 -28 -84 -14 -37 19 -84 12 -133 -21 l-37
-26 -26 25 c-14 14 -33 25 -42 25 -14 0 -16 -9 -11 -57 7 -69 29 -113 58 -113
14 0 32 22 65 78 31 53 52 78 67 80 23 3 26 -4 38 -71 6 -40 41 -71 72 -65 14
2 20 16 25 57 5 44 13 60 44 92 45 47 37 49 -36 10z"/>
<path d="M1942 1402 c-40 -71 -43 -80 -33 -113 13 -42 44 -74 65 -66 7 3 26
29 41 59 24 48 47 88 84 149 l13 22 -31 -22 c-17 -12 -33 -26 -36 -31 -10 -17
-25 -11 -25 10 0 22 -20 70 -29 70 -3 0 -25 -35 -49 -78z"/>
</g>
</svg>
